<?xml version="1.0" encoding="utf-8"?>
<COLLADA xmlns="http://www.collada.org/2005/11/COLLADASchema" version="1.4.1" xmlns:xsi="http://www.w3.org/2001/XMLSchema-instance">
  <asset>
    <contributor>
      <author>Blender User</author>
      <authoring_tool>Blender 3.5.1 commit date:2023-04-24, commit time:18:11, hash:e1ccd9d4a1d3</authoring_tool>
    </contributor>
    <created>2023-05-17T12:17:45</created>
    <modified>2023-05-17T12:17:45</modified>
    <unit name="meter" meter="1"/>
    <up_axis>Z_UP</up_axis>
  </asset>
  <library_effects>
    <effect id="DEFAULT_MTL-effect">
      <profile_COMMON>
        <technique sid="common">
          <lambert>
            <emission>
              <color sid="emission">0 0 0 1</color>
            </emission>
            <diffuse>
              <color sid="diffuse">0.8 0.8 0.8 1</color>
            </diffuse>
            <index_of_refraction>
              <float sid="ior">1.45</float>
            </index_of_refraction>
          </lambert>
        </technique>
      </profile_COMMON>
    </effect>
  </library_effects>
  <library_images/>
  <library_materials>
    <material id="DEFAULT_MTL-material" name="DEFAULT_MTL">
      <instance_effect url="#DEFAULT_MTL-effect"/>
    </material>
  </library_materials>
  <library_geometries>
    <geometry id="clr_link_1_visual-mesh" name="clr_link_1_visual">
      <mesh>
        <source id="clr_link_1_visual-mesh-positions">
          <float_array id="clr_link_1_visual-mesh-positions-array" count="1164">-0.02349996 0.203 0 -0.2014999 0.02499997 0 -0.2014999 0.203 0 -0.2014999 0.203 0.023 -0.2014999 0.203 0 -0.2014999 0.02499997 0 -0.02349996 0.203 0.023 -0.02349996 0.203 0 -0.2014999 0.203 0 -0.2014999 0.203 0.023 -0.02349996 0.02499997 0 -0.2014999 0.02499997 0.023 -0.2014999 0.02499997 0 -0.02349996 0.02499997 0 -0.2014999 0.2064999 0.06799995 -0.2014999 0.02499997 0.023 -0.02349996 0.02499997 0.023 -0.02349996 0.02499997 0 -0.02349996 0.203 0 -0.02349996 0.02499997 0.023 -0.02349996 0.203 0.023 -0.2014999 0.2064999 0.023 -0.02349996 0.203 0.023 -0.2014999 0.203 0.023 -0.2014999 0.2064999 0.023 0.02349996 0.203 0.023 0.02349996 0.02499997 0.023 -0.02349996 0.02499997 0.023 0.2064999 0.2064999 0.06799995 -0.2014999 0.2064999 0.023 -0.2014999 0.2064999 0.06799995 0.2014999 0.203 0.023 0.2064999 0.2064999 0.023 0.2064999 0.2064999 0.023 -0.2014999 -0.2014999 0.023 -0.2014999 -0.2014999 0.06799995 -0.155 0.155 0.06799995 -0.2014999 0.2064999 0.06799995 -0.2014999 -0.2014999 0.06799995 0.2064999 0.2064999 0.06799995 -0.1179 -0.2014999 0.023 -0.2014999 -0.2014999 0.06799995 -0.2014999 -0.2014999 0.023 0.1051 -0.2014999 0 0.2064999 -0.2014999 0.023 0.1051 -0.2014999 0.023 0.2064999 -0.2014999 0.06799995 0.2014999 -0.1575 0.06799995 0.2064999 -0.2014999 0.06799995 0.1565 -0.1575 0.06799995 0.155 -0.155 0.06799995 -0.155 -0.155 0.06799995 -0.1179 -0.2014999 0.023 -0.2014999 -0.2014999 0.023 -0.2014999 0.02499997 0.023 0.1051 0.02149999 0.023 -0.1179 0.02149999 0.023 -0.1179 -0.2014999 0 -0.1179 -0.2014999 0.023 -0.1179 0.02149999 0.023 -0.1179 -0.2014999 0 -0.1179 0.02149999 0 -0.1179 0.02149999 0.023 0.1051 0.02149999 0.023 -0.1179 0.02149999 0 0.2064999 -0.2014999 0.023 0.1051 -0.2014999 0.023 0.1051 0.02149999 0 0.1051 0.02149999 0.023 0.1051 -0.2014999 0.023 0.2014999 0.02499997 0.023 0.1051 0.02149999 0 0.1051 -0.2014999 0 0.2064999 -0.2014999 0.06799995 0.2064999 -0.2014999 0.023 0.2064999 0.2064999 0.023 0.2064999 0.2064999 0.06799995 0.02349996 0.02499997 0 0.02349996 0.02499997 0.023 0.02349996 0.203 0.023 0.2014999 0.02499997 0 0.2014999 0.02499997 0.023 0.02349996 0.02499997 0.023 0.02349996 0.02499997 0 0.02349996 0.203 0 0.02349996 0.203 0.023 0.2014999 0.203 0.023 0.02349996 0.203 0 0.2014999 0.203 0 0.2014999 0.203 0.023 0.2014999 0.02499997 0.023 0.2014999 0.203 0 0.2014999 0.02499997 0 0.1051 0.02149999 0 0.1051 -0.2014999 0 -0.1179 -0.2014999 0 -0.1179 0.02149999 0 0.2014999 -0.1125 0.06799995 0.1565 -0.1125 0.06799995 0.155 0.155 0.06799995 0.1565 -0.1125 0.252 0.1565 -0.1125 0.06799995 0.1565 -0.1575 0.06799995 0.1565 -0.1125 0.252 0.2014999 -0.1125 0.06799995 0.1565 -0.1125 0.06799995 0.2014999 -0.1575 0.1355 0.1565 -0.1575 0.06799995 0.2014999 -0.1575 0.06799995 0.1565 -0.1575 0.1355 0.1565 -0.1575 0.1355 0.2014999 -0.1575 0.1355 0.2014999 -0.1575 0.06799995 0.2014999 -0.1125 0.06799995 0.2014999 -0.1125 0.252 0.2014999 -0.1575 0.252 0.2014999 -0.1575 0.1805 0.2014999 -0.1125 0.252 0.155 0.155 0.08754998 0.155 0.155 0.06799995 -0.155 0.155 0.06799995 0.155 -0.155 0.08754998 0.155 -0.155 0.06799995 0.155 0.155 0.06799995 0.155 0.155 0.08754998 -0.155 0.155 0.08754998 -0.155 0.155 0.06799995 -0.155 -0.155 0.06799995 -0.155 0.155 0.08754998 -0.155 -0.155 0.08754998 -0.155 -0.155 0.06799995 0.155 -0.155 0.06799995 -0.155 -0.155 0.08754998 0.155 -0.155 0.08754998 0.1565 -0.1575 0.1805 0.1565 -0.3375 0.1365 0.1565 -0.3375 0.1805 0.1134999 -0.3375 0.1365 0.1565 -0.3375 0.1805 0.1565 -0.3375 0.1365 0.2014999 -0.1575 0.1805 0.1565 -0.1575 0.1805 0.1565 -0.3375 0.1805 0.2014999 -0.3375 0.2245 0.2014999 -0.3375 0.1805 0.2014999 -0.3375 0.1805 0.1134999 -0.3375 0.2245 0.1565 -0.3375 0.1355 0.2014999 -0.3375 0.1355 0.1565 -0.3375 0.1365 0.1565 -0.3375 0.1355 0.1134999 -0.3435 0.1365 0.1134999 -0.3375 0.1365 0.1565 -0.3375 0.1365 0.2014999 -0.3375 0.1365 0.2014999 -0.3375 0.1365 0.2014999 -0.3375 0.1355 0.1565 -0.3375 0.1355 0.1565 -0.1575 0.1355 0.2014999 -0.1575 0.1355 0.1565 -0.1575 0.252 0.2014999 -0.1575 0.252 0.1565 -0.1125 0.252 0.1565 -0.1575 0.252 0.2014999 -0.1125 0.252 0.2014999 -0.1575 0.252 0.1565 -0.1575 0.252 0.1565 -0.1575 0.1805 0.2014999 -0.1575 0.1805 0.2014999 -0.3435 0.2245 0.2014999 -0.3375 0.1805 0.2014999 -0.3375 0.2245 0.2014999 -0.3375 0.1365 0.2014999 -0.3435 0.2245 0.2014999 -0.3375 0.2245 0.1134999 -0.3375 0.2245 0.1134999 -0.3435 0.2245 0.1134999 -0.3375 0.2245 0.1134999 -0.3375 0.1365 0.1134999 -0.3435 0.2245 0.1134999 -0.3435 0.1365 0.2014999 -0.3375 0.1355 0.2014999 -0.3435 0.1365 0.2014999 -0.3435 0.1365 0.1134999 -0.3435 0.2245 0.2014999 -0.3435 0.1365 0.2014999 -0.3435 0.2245 0.1134999 -0.3435 0.1365 0.08149999 -0.07576495 0.08754998 0.155 -0.155 0.08754998 0.155 0.155 0.08754998 0.07576495 -0.08149999 0.08754998 -0.155 -0.155 0.08754998 -0.07576495 0.08149999 0.08754998 -0.155 0.155 0.08754998 0.08149999 -0.01791399 0.08754998 0.07949995 -0.01508599 0.08754998 0.08149999 0.01791399 0.08754998 0.08149999 0.07576495 0.08754998 0.07576495 0.08149999 0.08754998 0.01791399 0.08149999 0.08754998 -0.01791399 0.08149999 0.08754998 -0.08149999 0.07576495 0.08754998 -0.07576495 -0.08149999 0.08754998 -0.08149999 -0.07576495 0.08754998 -0.08149999 -0.01791399 0.08754998 -0.01791399 -0.08149999 0.08754998 0.01791399 -0.08149999 0.08754998 -0.08149999 0.01791399 0.08754998 -0.07949995 0.01508599 0.08754998 -0.07576495 -0.08149999 0.56705 -0.08149999 -0.07576495 0.08754998 -0.07576495 -0.08149999 0.08754998 -0.08149999 -0.07576495 0.56705 -0.08149999 -0.01791399 0.08754998 -0.08149999 -0.07576495 0.08754998 -0.08149999 -0.07576495 0.56705 -0.01791399 -0.08149999 0.56705 -0.07576495 -0.08149999 0.08754998 -0.01791399 -0.08149999 0.08754998 -0.07576495 -0.08149999 0.56705 0.01508599 -0.07949995 0.08754998 -0.01508599 -0.07949995 0.08754998 -0.01508599 -0.07949995 0.56705 -0.01791399 -0.08149999 0.08754998 -0.01508599 -0.07949995 0.08754998 -0.01791399 -0.08149999 0.56705 0.01508599 -0.07949995 0.56705 -0.01508599 -0.07949995 0.08754998 0.01508599 -0.07949995 0.08754998 -0.01508599 -0.07949995 0.56705 0.01791399 -0.08149999 0.56705 0.01508599 -0.07949995 0.08754998 0.01791399 -0.08149999 0.08754998 0.01508599 -0.07949995 0.56705 0.07576495 -0.08149999 0.56705 0.01791399 -0.08149999 0.08754998 0.07576495 -0.08149999 0.08754998 0.01791399 -0.08149999 0.56705 0.08149999 -0.07576495 0.56705 0.07576495 -0.08149999 0.08754998 0.08149999 -0.07576495 0.08754998 0.07576495 -0.08149999 0.56705 0.08149999 -0.01791399 0.56705 0.08149999 -0.07576495 0.08754998 0.08149999 -0.01791399 0.08754998 0.08149999 -0.07576495 0.56705 0.07949995 -0.01508599 0.56705 0.08149999 -0.01791399 0.08754998 0.07949995 -0.01508599 0.08754998 0.08149999 -0.01791399 0.56705 0.07949995 0.01508599 0.08754998 0.07949995 0.01508599 0.56705 0.07949995 -0.01508599 0.08754998 0.07949995 0.01508599 0.08754998 0.07949995 -0.01508599 0.56705 0.08149999 0.01791399 0.56705 0.07949995 0.01508599 0.08754998 0.08149999 0.01791399 0.08754998 0.07949995 0.01508599 0.56705 0.08149999 0.07576495 0.56705 0.08149999 0.01791399 0.08754998 0.08149999 0.07576495 0.08754998 0.08149999 0.01791399 0.56705 0.07576495 0.08149999 0.56705 0.08149999 0.07576495 0.08754998 0.07576495 0.08149999 0.08754998 0.08149999 0.07576495 0.56705 0.01791399 0.08149999 0.56705 0.07576495 0.08149999 0.08754998 0.01791399 0.08149999 0.08754998 0.07576495 0.08149999 0.56705 -0.01508599 0.07949995 0.08754998 0.01508599 0.07949995 0.08754998 0.01508599 0.07949995 0.56705 0.01791399 0.08149999 0.08754998 0.01508599 0.07949995 0.08754998 0.01791399 0.08149999 0.56705 -0.01508599 0.07949995 0.56705 0.01508599 0.07949995 0.08754998 -0.01508599 0.07949995 0.08754998 0.01508599 0.07949995 0.56705 -0.01791399 0.08149999 0.56705 -0.01508599 0.07949995 0.08754998 -0.01791399 0.08149999 0.08754998 -0.01508599 0.07949995 0.56705 -0.07576495 0.08149999 0.56705 -0.01791399 0.08149999 0.08754998 -0.07576495 0.08149999 0.08754998 -0.01791399 0.08149999 0.56705 -0.08149999 0.07576495 0.56705 -0.07576495 0.08149999 0.08754998 -0.08149999 0.07576495 0.08754998 -0.07576495 0.08149999 0.56705 -0.08149999 0.01791399 0.56705 -0.08149999 0.07576495 0.08754998 -0.08149999 0.01791399 0.08754998 -0.08149999 0.07576495 0.56705 -0.07949995 0.01508599 0.56705 -0.08149999 0.01791399 0.08754998 -0.07949995 0.01508599 0.08754998 -0.08149999 0.01791399 0.56705 -0.07949995 -0.01508599 0.08754998 -0.07949995 -0.01508599 0.56705 -0.07949995 0.01508599 0.08754998 -0.07949995 -0.01508599 0.08754998 -0.07949995 0.01508599 0.56705 -0.08149999 -0.01791399 0.56705 -0.07949995 -0.01508599 0.08754998 -0.08149999 -0.01791399 0.08754998 -0.07949995 -0.01508599 0.56705 -0.08149999 -0.01791399 0.56705 -0.07576495 -0.08149999 0.56705 -0.08149999 -0.01791399 0.56705 -0.08149999 -0.07576495 0.56705 -0.07949995 -0.01508599 0.56705 -0.07949995 0.01508599 0.56705 -0.08149999 0.07576495 0.56705 -0.08149999 0.01791399 0.56705 -0.07576495 0.08149999 0.56705 -0.062141 0.07299995 0.56705 -0.01791399 0.08149999 0.56705 -0.07299995 -0.062141 0.56705 -0.07299995 0.062141 0.56705 -0.01508599 0.07949995 0.56705 0.062141 0.07299995 0.56705 0.01508599 0.07949995 0.56705 0.01791399 0.08149999 0.56705 0.07576495 0.08149999 0.56705 0.08149999 0.01791399 0.56705 0.08149999 0.07576495 0.56705 0.07949995 0.01508599 0.56705 0.07949995 -0.01508599 0.56705 0.08149999 -0.07576495 0.56705 0.07576495 -0.08149999 0.56705 0.07299995 0.062141 0.56705 0.08149999 -0.01791399 0.56705 0.062141 -0.07299995 0.56705 0.01791399 -0.08149999 0.56705 0.07299995 -0.062141 0.56705 0.01508599 -0.07949995 0.56705 -0.062141 -0.07299995 0.56705 -0.01508599 -0.07949995 0.56705 -0.01791399 -0.08149999 0.56705 0.07299995 -0.062141 0.08754998 0.062141 -0.07299995 0.56705 0.07299995 -0.062141 0.56705 0.062141 -0.07299995 0.08754998 -0.062141 -0.07299995 0.56705 0.062141 -0.07299995 0.56705 0.062141 -0.07299995 0.08754998 0.07299995 0.062141 0.08754998 0.07299995 -0.062141 0.56705 0.07299995 0.062141 0.56705 0.07299995 -0.062141 0.08754998 0.062141 0.07299995 0.08754998 0.07299995 0.062141 0.56705 0.062141 0.07299995 0.56705 0.07299995 0.062141 0.08754998 -0.062141 0.07299995 0.08754998 0.062141 0.07299995 0.56705 -0.062141 0.07299995 0.56705 0.062141 0.07299995 0.08754998 -0.07299995 0.062141 0.08754998 -0.062141 0.07299995 0.56705 -0.07299995 0.062141 0.56705 -0.062141 0.07299995 0.08754998 -0.07299995 -0.062141 0.08754998 -0.07299995 0.062141 0.56705 -0.07299995 -0.062141 0.56705 -0.07299995 0.062141 0.08754998 -0.062141 -0.07299995 0.08754998 -0.07299995 -0.062141 0.56705 -0.062141 -0.07299995 0.56705 -0.07299995 -0.062141 0.08754998 -0.062141 -0.07299995 0.08754998 0.062141 0.07299995 0.08754998 0.062141 -0.07299995 0.08754998 0.07299995 -0.062141 0.08754998 0.07299995 0.062141 0.08754998 -0.062141 0.07299995 0.08754998 -0.062141 -0.07299995 0.08754998 -0.07299995 0.062141 0.08754998 -0.07299995 -0.062141 0.08754998 0.2014999 0.203 0 0.2014999 0.02499997 0 0.02349996 0.02499997 0 0.02349996 0.203 0</float_array>
          <technique_common>
            <accessor source="#clr_link_1_visual-mesh-positions-array" count="388" stride="3">
              <param name="X" type="float"/>
              <param name="Y" type="float"/>
              <param name="Z" type="float"/>
            </accessor>
          </technique_common>
        </source>
        <source id="clr_link_1_visual-mesh-normals">
          <float_array id="clr_link_1_visual-mesh-normals-array" count="336">0 0 -1 -1 0 0 -1 0 0 -1 -3.27175e-7 0 0 1 0 0 -1 0 -1 0 0 -1 -1.71744e-7 0 1 0 0 0 0 -1 0 0 1 0 0 1 0 0 1 0 0 1 0 -1 -8.04126e-7 0 -1 -2.41665e-7 0 -1 0 0 0 1 0 0 1 -1.29216e-7 0 1 0 0 -1 1.38544e-6 0 -1 1.09828e-5 0 1 5.26223e-6 0 1 -1.24614e-7 0 1 -1 0 0 -1 0 0 -1 -3.60844e-7 0 -1 0 0 -1 3.72726e-7 0 0 1 -1.60325e-7 0 1 -2.37087e-7 0 1 -2.44048e-7 -1 5.45878e-7 0 0 0 1 0 0 1 0 0 1 0 0 1 0 0 1 0 0 1 1.33511e-7 0 1 0 0 1 -0.7071076 -0.707106 0 -0.7071066 -0.707107 0 -0.7071076 -0.7071059 0 0.5774092 -0.8164551 0 0.5774092 -0.816455 0 -0.5774092 -0.8164551 0 -0.5774092 -0.816455 0 0.7071067 -0.707107 0 0.7071076 -0.7071061 0 0.7071076 -0.7071061 0 0.8164551 0.5774089 0 0.8164552 0.5774089 0 0.8164551 -0.5774089 0 0.8164552 -0.5774089 0 0.7071076 0.707106 0 0.7071066 0.707107 0 0.7071076 0.7071059 0 -0.5774092 0.8164551 0 -0.5774092 0.816455 0 0.5774092 0.8164551 0 0.5774092 0.816455 0 -0.7071067 0.707107 0 -0.7071076 0.7071061 0 -0.7071076 0.7071061 0 -0.8164551 -0.5774089 0 -0.8164552 -0.5774089 0 -0.8164551 0.5774089 0 -0.8164552 0.5774089 0 6.18987e-6 0 1 -3.89812e-6 0 1 2.24567e-5 0 1 -5.51648e-5 0 1 -1.61629e-6 0 1 7.76252e-6 0 1 -6.03698e-6 0 1 6.82139e-7 0 1 0 0 1 3.82835e-6 0 1 -1.85951e-7 0 1 -2.89832e-5 0 1 8.29433e-7 0 1 0 0 1 -8.29433e-7 0 1 -3.82835e-6 0 1 -6.13639e-6 0 1 -7.99659e-7 0 1 -2.24567e-5 0 1 5.42939e-5 0 1 1.61629e-6 0 1 0 0 1 1.9746e-6 0 1 1.85951e-7 0 1 6.03698e-6 0 1 0 0 1 2.89832e-5 0 1 -8.29433e-7 0 1 0 0 1 8.29433e-7 0 1 -0.707107 0.7071067 0 -0.7071067 0.7071068 0 -0.7071067 0.7071069 0 -0.7071067 -0.7071068 0 -0.707107 -0.7071067 0 -0.7071067 -0.7071069 0 0.707107 -0.7071067 0 0.7071067 -0.7071068 0 0.7071067 -0.7071069 0 0.7071067 0.7071068 0 0.707107 0.7071067 0 0.7071067 0.7071069 0</float_array>
          <technique_common>
            <accessor source="#clr_link_1_visual-mesh-normals-array" count="112" stride="3">
              <param name="X" type="float"/>
              <param name="Y" type="float"/>
              <param name="Z" type="float"/>
            </accessor>
          </technique_common>
        </source>
        <source id="clr_link_1_visual-mesh-map-0">
          <float_array id="clr_link_1_visual-mesh-map-0-array" count="1524">0.776949 0 1 0 0.888539 0 0.888539 0.05614894 0.888539 0 1 0 0.776949 0.07842797 0.776949 0 0.888539 0 0.776949 0.07842797 0.888539 0 0.888539 0.05614894 0.776949 0 0.883983 0 1 0 1 0.07892996 1 0 0.883983 0 0.887108 0.1619679 0.888539 0.05614894 1 0 1 0.07892996 0.887108 0.1619679 1 0 0.883983 0.413239 0.883983 0 0.776949 0 0.883983 0.413239 1 0.07892996 0.883983 0 0.883983 0.413239 0.776949 0 0.776949 0.07842797 0.887108 0.05566495 0.776949 0.07842797 0.888539 0.05614894 0.887108 0.1619679 0.887108 0.05566495 0.888539 0.05614894 0.738354 0.07842797 0.776949 0.07842797 0.887108 0.05566495 0.63132 0.413239 0.883983 0.413239 0.776949 0.07842797 0.738354 0.07842797 0.63132 0.413239 0.776949 0.07842797 0.626143 0.160087 0.887108 0.05566495 0.887108 0.1619679 0.626764 0.05614894 0.887108 0.05566495 0.626143 0.05499798 0.626143 0.160087 0.626143 0.05499798 0.887108 0.05566495 0.626764 0.05614894 0.738354 0.07842797 0.887108 0.05566495 0.100108 0.05635696 0.100108 0.163917 0.887108 0.1619679 0.88916 0.21049 0.887108 0.1619679 0.100108 0.163917 1 0.07892996 0.100108 0.05635696 0.887108 0.1619679 0.88916 0.21049 0.626143 0.160087 0.887108 0.1619679 0.142973 0.06871795 0.100108 0.163917 0.100108 0.05635696 0.312118 0 0.100108 0.163917 0.142973 0.06871795 0.365178 0.05566495 0.100108 0.163917 0.312118 0.07057899 0.312118 0 0.312118 0.07057899 0.100108 0.163917 0.365178 0.1619679 0.100108 0.163917 0.365178 0.05566495 0.383546 0.181849 0.100108 0.163917 0.365178 0.1619679 0.383546 0.181849 0.362592 0.207964 0.100108 0.163917 0.363126 0.21049 0.100108 0.163917 0.362592 0.207964 0.100108 0.21049 0.88916 0.21049 0.100108 0.163917 0.363126 0.21049 0.100108 0.21049 0.100108 0.163917 0.142973 0.06871795 0.100108 0.05635696 1 0.07892996 0.528421 0.147791 1 0.07892996 0.883983 0.413239 0.990466 0.132682 0.142973 0.06871795 1 0.07892996 0.528421 0.147791 0.990466 0.132682 1 0.07892996 0.63132 0.413239 0.528421 0.147791 0.883983 0.413239 0.142973 0 0.142973 0.06871795 0.990466 0.132682 0.142973 0 0.312118 0 0.142973 0.06871795 0.990466 0 0.990466 0.132682 0.528421 0.147791 0.990466 0 0.142973 0 0.990466 0.132682 0.365178 0.05566495 0.312118 0.07057899 0.528421 0.147791 0.528421 0 0.528421 0.147791 0.312118 0.07057899 0.515303 0.07892996 0.365178 0.05566495 0.528421 0.147791 0.515303 0.07892996 0.528421 0.147791 0.63132 0.413239 0.528421 0 0.990466 0 0.528421 0.147791 0.528421 0 0.312118 0.07057899 0.312118 0 0.626764 0.05614894 0.626143 0.05499798 0.365178 0.05566495 0.365178 0.1619679 0.365178 0.05566495 0.626143 0.05499798 0.515303 0.07892996 0.626764 0.05614894 0.365178 0.05566495 0.626143 0.160087 0.365178 0.1619679 0.626143 0.05499798 0.63132 0 0.63132 0.413239 0.738354 0.07842797 0.515303 0 0.515303 0.07892996 0.63132 0.413239 0.63132 0 0.515303 0 0.63132 0.413239 0.738354 0 0.738354 0.07842797 0.626764 0.05614894 0.738354 0 0.63132 0 0.738354 0.07842797 0.626764 0 0.626764 0.05614894 0.515303 0.07892996 0.738354 0 0.626764 0.05614894 0.626764 0 0.626764 0 0.515303 0.07892996 0.515303 0 0.383546 0.181849 0.365178 0.1619679 0.626143 0.160087 0.528421 0 0.312118 0 0.142973 0 0.528421 0 0.142973 0 0.990466 0 0.409372 0.200515 0.626143 0.160087 0.390274 0.237342 0.626143 0.21049 0.390274 0.237342 0.626143 0.160087 0.409372 0.200515 0.383546 0.181849 0.626143 0.160087 0.88916 0.21049 0.626143 0.21049 0.626143 0.160087 0.363126 0.21049 0.362592 0.207964 0.390274 0.237342 0.390274 0.64229 0.390274 0.237342 0.362592 0.207964 0.390274 0.64229 0.409372 0.200515 0.390274 0.237342 0.363126 0.21049 0.390274 0.237342 0.626143 0.21049 0.383546 0.340934 0.362592 0.207964 0.383546 0.181849 0.390274 0.64229 0.362592 0.207964 0.362592 0.383427 0.383546 0.340934 0.362592 0.383427 0.362592 0.207964 0.383546 0.340934 0.383546 0.181849 0.409372 0.200515 0.409372 0.580334 0.409372 0.200515 0.390274 0.64229 0.383546 0.544425 0.383546 0.430065 0.409372 0.200515 0.383546 0.340934 0.409372 0.200515 0.383546 0.430065 0.409372 0.580334 0.383546 0.544425 0.409372 0.200515 0.626143 0.265904 0.626143 0.21049 0.88916 0.21049 0.363126 0.265904 0.363126 0.21049 0.626143 0.21049 0.626143 0.265904 0.363126 0.265904 0.626143 0.21049 0.88916 0.265904 0.88916 0.21049 0.100108 0.21049 0.88916 0.265904 0.626143 0.265904 0.88916 0.21049 0.100108 0.265904 0.100108 0.21049 0.363126 0.21049 0.88916 0.265904 0.100108 0.21049 0.100108 0.265904 0.100108 0.265904 0.363126 0.21049 0.363126 0.265904 0.362592 0.477648 0.304319 0.246083 0.304319 0.316104 0.285938 0.256162 0.304319 0.316104 0.304319 0.246083 0.383546 0.430065 0.362592 0.477648 0.304319 0.316104 0.321741 0.363126 0.321741 0.301233 0.304319 0.316104 0.383546 0.430065 0.304319 0.316104 0.321741 0.301233 0.285938 0.393642 0.321741 0.363126 0.304319 0.316104 0.285938 0.256162 0.285938 0.393642 0.304319 0.316104 0.362592 0.477648 0.304319 0.244423 0.304319 0.246083 0.321741 0.232294 0.304319 0.246083 0.304319 0.244423 0.285053 0.252475 0.285938 0.256162 0.304319 0.246083 0.321741 0.233884 0.304319 0.246083 0.321741 0.232294 0.285053 0.252475 0.304319 0.246083 0.321741 0.233884 0.362592 0.477648 0.362592 0.383427 0.304319 0.244423 0.321741 0.232294 0.304319 0.244423 0.362592 0.383427 0.362592 0.477648 0.390274 0.64229 0.362592 0.383427 0.383546 0.340934 0.321741 0.232294 0.362592 0.383427 0.362592 0.477648 0.362592 0.593773 0.390274 0.64229 0.383546 0.544425 0.390274 0.64229 0.362592 0.593773 0.409372 0.580334 0.390274 0.64229 0.383546 0.544425 0.383546 0.544425 0.362592 0.593773 0.362592 0.477648 0.383546 0.544425 0.362592 0.477648 0.383546 0.430065 0.320447 0.359206 0.321741 0.301233 0.321741 0.363126 0.383546 0.340934 0.383546 0.430065 0.321741 0.301233 0.320447 0.359206 0.321741 0.233884 0.321741 0.301233 0.383546 0.340934 0.321741 0.301233 0.321741 0.233884 0.320447 0.359206 0.321741 0.363126 0.285938 0.393642 0.285053 0.388653 0.285938 0.393642 0.285938 0.256162 0.285053 0.388653 0.320447 0.359206 0.285938 0.393642 0.285053 0.388653 0.285938 0.256162 0.285053 0.252475 0.383546 0.340934 0.321741 0.233884 0.321741 0.232294 0.320447 0.359206 0.320447 0.231069 0.321741 0.233884 0.285053 0.252475 0.321741 0.233884 0.320447 0.231069 0.285053 0.388653 0.320447 0.231069 0.320447 0.359206 0.285053 0.388653 0.285053 0.252475 0.320447 0.231069 0.369229 0.46648 0.363126 0.265904 0.626143 0.265904 0.357023 0.46648 0.100108 0.265904 0.363126 0.265904 0.369229 0.46648 0.357023 0.46648 0.363126 0.265904 0.883057 0.46648 0.626143 0.265904 0.88916 0.265904 0.458406 0.566387 0.369229 0.46648 0.626143 0.265904 0.463234 0.577124 0.458406 0.566387 0.626143 0.265904 0.530863 0.566387 0.463234 0.577124 0.626143 0.265904 0.62004 0.46648 0.530863 0.566387 0.626143 0.265904 0.632246 0.46648 0.62004 0.46648 0.626143 0.265904 0.721423 0.566387 0.632246 0.46648 0.626143 0.265904 0.79388 0.566387 0.721423 0.566387 0.626143 0.265904 0.883057 0.46648 0.79388 0.566387 0.626143 0.265904 0.895263 0.46648 0.88916 0.265904 0.100108 0.265904 0.106211 0.46648 0.09400498 0.46648 0.100108 0.265904 0.004828989 0.566387 0.100108 0.265904 0.09400498 0.46648 0.195388 0.566387 0.106211 0.46648 0.100108 0.265904 0.267846 0.566387 0.195388 0.566387 0.100108 0.265904 0.357023 0.46648 0.267846 0.566387 0.100108 0.265904 0.98444 0.566387 0.895263 0.46648 0.100108 0.265904 0.989269 0.577124 0.98444 0.566387 0.100108 0.265904 0.004828989 0.566387 0.989269 0.577124 0.100108 0.265904 0.895263 0.46648 0.883057 0.46648 0.88916 0.265904 0.106211 0.96359 0.09400498 0.46648 0.106211 0.46648 0.09400498 0.96359 0.004828989 0.566387 0.09400498 0.46648 0.106211 0.96359 0.09400498 0.96359 0.09400498 0.46648 0.195388 0.996946 0.106211 0.46648 0.195388 0.566387 0.106211 0.96359 0.106211 0.46648 0.195388 0.996946 0.263017 0.577124 0.200217 0.577124 0.195388 0.566387 0.200217 1 0.195388 0.566387 0.200217 0.577124 0.267846 0.566387 0.263017 0.577124 0.195388 0.566387 0.195388 0.996946 0.195388 0.566387 0.200217 1 0.263017 1 0.200217 0.577124 0.263017 0.577124 0.200217 1 0.200217 0.577124 0.263017 1 0.267846 0.996946 0.263017 0.577124 0.267846 0.566387 0.263017 1 0.263017 0.577124 0.267846 0.996946 0.357023 0.96359 0.267846 0.566387 0.357023 0.46648 0.267846 0.996946 0.267846 0.566387 0.357023 0.96359 0.369229 0.96359 0.357023 0.46648 0.369229 0.46648 0.357023 0.96359 0.357023 0.46648 0.369229 0.96359 0.458406 0.996946 0.369229 0.46648 0.458406 0.566387 0.369229 0.96359 0.369229 0.46648 0.458406 0.996946 0.463234 1 0.458406 0.566387 0.463234 0.577124 0.458406 0.996946 0.458406 0.566387 0.463234 1 0.530863 0.566387 0.526034 0.577124 0.463234 0.577124 0.526034 1 0.463234 0.577124 0.526034 0.577124 0.463234 1 0.463234 0.577124 0.526034 1 0.530863 0.996946 0.526034 0.577124 0.530863 0.566387 0.526034 1 0.526034 0.577124 0.530863 0.996946 0.62004 0.96359 0.530863 0.566387 0.62004 0.46648 0.530863 0.996946 0.530863 0.566387 0.62004 0.96359 0.632246 0.96359 0.62004 0.46648 0.632246 0.46648 0.62004 0.96359 0.62004 0.46648 0.632246 0.96359 0.721423 0.996946 0.632246 0.46648 0.721423 0.566387 0.632246 0.96359 0.632246 0.46648 0.721423 0.996946 0.789052 0.577124 0.726251 0.577124 0.721423 0.566387 0.726251 1 0.721423 0.566387 0.726251 0.577124 0.79388 0.566387 0.789052 0.577124 0.721423 0.566387 0.721423 0.996946 0.721423 0.566387 0.726251 1 0.789052 1 0.726251 0.577124 0.789052 0.577124 0.726251 1 0.726251 0.577124 0.789052 1 0.79388 0.996946 0.789052 0.577124 0.79388 0.566387 0.789052 1 0.789052 0.577124 0.79388 0.996946 0.883057 0.96359 0.79388 0.566387 0.883057 0.46648 0.79388 0.996946 0.79388 0.566387 0.883057 0.96359 0.895263 0.96359 0.883057 0.46648 0.895263 0.46648 0.883057 0.96359 0.883057 0.46648 0.895263 0.96359 0.98444 0.996946 0.895263 0.46648 0.98444 0.566387 0.895263 0.96359 0.895263 0.46648 0.98444 0.996946 0.989269 1 0.98444 0.566387 0.989269 0.577124 0.98444 0.996946 0.98444 0.566387 0.989269 1 0.004828989 0.566387 0 0.577124 0.989269 0.577124 0 1 0.989269 0.577124 0 0.577124 0.989269 1 0.989269 0.577124 0 1 0.004828989 0.996946 0 0.577124 0.004828989 0.566387 0 1 0 0.577124 0.004828989 0.996946 0.09400498 0.96359 0.004828989 0.996946 0.004828989 0.566387 0.106211 0.96359 0.004828989 0.996946 0.09400498 0.96359 0.106211 0.96359 0 1 0.004828989 0.996946 0.106211 0.96359 0.989269 1 0 1 0.895263 0.96359 0.98444 0.996946 0.989269 1 0.106211 0.96359 0.895263 0.96359 0.989269 1 0.106211 0.96359 0.883057 0.96359 0.895263 0.96359 0.875735 0.981991 0.79388 0.996946 0.883057 0.96359 0.08668297 0.981991 0.883057 0.96359 0.106211 0.96359 0.902586 0.981991 0.875735 0.981991 0.883057 0.96359 0.08668297 0.981991 0.902586 0.981991 0.883057 0.96359 0.875735 0.981991 0.789052 1 0.79388 0.996946 0.639569 0.981991 0.726251 1 0.789052 1 0.875735 0.981991 0.639569 0.981991 0.789052 1 0.639569 0.981991 0.721423 0.996946 0.726251 1 0.639569 0.981991 0.632246 0.96359 0.721423 0.996946 0.530863 0.996946 0.62004 0.96359 0.632246 0.96359 0.526034 1 0.530863 0.996946 0.632246 0.96359 0.463234 1 0.526034 1 0.632246 0.96359 0.369229 0.96359 0.463234 1 0.632246 0.96359 0.357023 0.96359 0.369229 0.96359 0.632246 0.96359 0.612717 0.981991 0.357023 0.96359 0.632246 0.96359 0.639569 0.981991 0.612717 0.981991 0.632246 0.96359 0.369229 0.96359 0.458406 0.996946 0.463234 1 0.3497 0.981991 0.267846 0.996946 0.357023 0.96359 0.376551 0.981991 0.3497 0.981991 0.357023 0.96359 0.612717 0.981991 0.376551 0.981991 0.357023 0.96359 0.3497 0.981991 0.263017 1 0.267846 0.996946 0.113534 0.981991 0.200217 1 0.263017 1 0.113534 0.981991 0.263017 1 0.3497 0.981991 0.113534 0.981991 0.195388 0.996946 0.200217 1 0.113534 0.981991 0.106211 0.96359 0.195388 0.996946 0.113534 0.981991 0.08668297 0.981991 0.106211 0.96359 0.376551 0.517884 0.3497 0.981991 0.376551 0.981991 0.3497 0.517884 0.113534 0.981991 0.3497 0.981991 0.3497 0.517884 0.3497 0.981991 0.376551 0.517884 0.612717 0.517884 0.376551 0.981991 0.612717 0.981991 0.612717 0.517884 0.376551 0.517884 0.376551 0.981991 0.639569 0.517884 0.612717 0.981991 0.639569 0.981991 0.612717 0.517884 0.612717 0.981991 0.639569 0.517884 0.875735 0.517884 0.639569 0.981991 0.875735 0.981991 0.639569 0.517884 0.639569 0.981991 0.875735 0.517884 0.902586 0.517884 0.875735 0.981991 0.902586 0.981991 0.875735 0.517884 0.875735 0.981991 0.902586 0.517884 0.08668297 0.517884 0.902586 0.981991 0.08668297 0.981991 0.902586 0.517884 0.902586 0.981991 0.08668297 0.517884 0.113534 0.517884 0.08668297 0.981991 0.113534 0.981991 0.08668297 0.517884 0.08668297 0.981991 0.113534 0.517884 0.113534 0.517884 0.113534 0.981991 0.3497 0.517884 0.639569 0.517884 0.3497 0.517884 0.376551 0.517884 0.612717 0.517884 0.639569 0.517884 0.376551 0.517884 0.875735 0.517884 0.113534 0.517884 0.3497 0.517884 0.639569 0.517884 0.875735 0.517884 0.3497 0.517884 0.902586 0.517884 0.08668297 0.517884 0.113534 0.517884 0.875735 0.517884 0.902586 0.517884 0.113534 0.517884 0.626764 0 0.515303 0 0.63132 0 0.738354 0 0.626764 0 0.63132 0</float_array>
          <technique_common>
            <accessor source="#clr_link_1_visual-mesh-map-0-array" count="762" stride="2">
              <param name="S" type="float"/>
              <param name="T" type="float"/>
            </accessor>
          </technique_common>
        </source>
        <vertices id="clr_link_1_visual-mesh-vertices">
          <input semantic="POSITION" source="#clr_link_1_visual-mesh-positions"/>
        </vertices>
        <triangles material="DEFAULT_MTL-material" count="254">
          <input semantic="VERTEX" source="#clr_link_1_visual-mesh-vertices" offset="0"/>
          <input semantic="NORMAL" source="#clr_link_1_visual-mesh-normals" offset="1"/>
          <input semantic="TEXCOORD" source="#clr_link_1_visual-mesh-map-0" offset="2" set="2"/>
          <p>0 0 0 1 0 1 2 0 2 3 1 3 4 2 4 5 3 5 6 4 6 7 4 7 8 4 8 6 4 9 8 4 10 9 4 11 0 0 12 10 0 13 1 0 14 11 5 15 12 5 16 13 5 17 14 6 18 3 1 19 5 3 20 15 7 21 14 6 22 5 3 23 16 8 24 17 8 25 18 8 26 19 5 27 11 5 28 13 5 29 16 8 30 18 8 31 20 8 32 21 0 33 22 0 34 23 0 35 14 6 36 24 2 37 3 1 38 25 0 39 22 0 40 21 0 41 26 0 42 27 0 43 22 0 44 25 0 45 26 0 46 22 0 47 28 4 48 29 4 49 30 4 50 31 9 51 21 0 52 32 0 53 28 4 54 33 4 55 29 4 56 31 9 57 25 0 58 21 0 59 34 2 60 35 2 61 14 6 62 36 10 63 37 11 64 38 12 65 15 7 66 34 2 67 14 6 68 36 10 69 39 13 70 37 11 71 40 14 72 41 15 73 42 5 74 43 16 75 41 15 76 40 14 77 44 5 78 41 15 79 45 5 80 43 16 81 45 5 82 41 15 83 46 5 84 41 15 85 44 5 86 47 17 87 38 12 88 48 11 89 47 17 90 49 11 91 38 12 92 50 18 93 38 12 94 49 11 95 51 19 96 36 10 97 38 12 98 50 18 99 51 19 100 38 12 101 52 0 102 53 0 103 54 0 104 55 0 105 54 0 106 27 0 107 56 0 108 52 0 109 54 0 110 55 0 111 56 0 112 54 0 113 26 0 114 55 0 115 27 0 116 57 2 117 58 2 118 59 2 119 60 5 120 43 16 121 40 14 122 61 4 123 62 4 124 63 4 125 64 2 126 57 2 127 59 2 128 65 20 129 66 0 130 55 0 131 67 8 132 68 8 133 69 8 134 70 21 135 65 20 136 55 0 137 70 21 138 55 0 139 26 0 140 71 4 141 61 4 142 63 4 143 67 8 144 69 8 145 72 8 146 31 9 147 32 0 148 65 20 149 73 8 150 74 8 151 75 8 152 70 21 153 31 9 154 65 20 155 76 8 156 73 8 157 75 8 158 77 2 159 78 2 160 79 2 161 80 5 162 81 5 163 82 5 164 83 5 165 80 5 166 82 5 167 84 4 168 85 4 169 86 4 170 87 2 171 77 2 172 79 2 173 88 8 174 89 8 175 90 8 176 84 4 177 86 4 178 91 4 179 88 8 180 90 8 181 92 8 182 47 17 183 48 11 184 39 13 185 93 0 186 94 0 187 95 0 188 93 0 189 95 0 190 96 0 191 97 22 192 39 13 193 98 23 194 99 24 195 98 23 196 39 13 197 97 22 198 47 17 199 39 13 200 36 10 201 99 24 202 39 13 203 50 18 204 49 11 205 98 23 206 100 25 207 101 2 208 102 26 209 103 4 210 104 4 211 105 4 212 50 18 213 98 23 214 99 24 215 106 5 216 107 5 217 108 5 218 100 25 219 102 26 220 109 27 221 106 5 222 110 5 223 107 5 224 111 8 225 112 8 226 113 8 227 114 4 228 104 4 229 103 4 230 115 8 231 116 8 232 113 8 233 111 8 234 113 8 235 116 8 236 117 8 237 115 8 238 113 8 239 118 4 240 119 4 241 120 4 242 121 8 243 122 8 244 123 8 245 124 8 246 121 8 247 123 8 248 125 2 249 126 2 250 127 2 251 128 4 252 118 4 253 120 4 254 129 5 255 130 5 256 131 5 257 125 2 258 127 2 259 132 2 260 129 5 261 131 5 262 133 5 263 134 28 264 135 29 265 136 2 266 137 4 267 138 30 268 139 4 269 140 11 270 141 11 271 142 11 272 143 31 273 144 4 274 138 30 275 140 11 276 142 11 277 145 11 278 146 32 279 143 31 280 138 30 281 137 4 282 146 32 283 138 30 284 134 28 285 147 33 286 135 29 287 148 5 288 149 5 289 150 5 290 151 0 291 152 0 292 153 0 293 154 5 294 149 5 295 148 5 296 151 0 297 153 0 298 155 0 299 134 28 300 109 27 301 147 33 302 156 0 303 157 0 304 158 0 305 134 28 306 100 25 307 109 27 308 159 0 309 156 0 310 158 0 311 134 28 312 160 2 313 100 25 314 161 11 315 162 11 316 163 11 317 164 11 318 162 11 319 161 11 320 165 5 321 166 5 322 167 5 323 165 5 324 167 5 325 168 5 326 169 8 327 170 8 328 171 8 329 111 8 330 116 8 331 170 8 332 169 8 333 172 8 334 170 8 335 111 8 336 170 8 337 172 8 338 173 11 339 174 11 340 175 11 341 176 2 342 177 2 343 178 2 344 179 11 345 173 11 346 175 11 347 176 2 348 178 2 349 180 2 350 111 8 351 172 8 352 181 8 353 169 8 354 182 8 355 172 8 356 151 0 357 155 0 358 183 0 359 184 5 360 185 5 361 186 5 362 184 5 363 187 5 364 185 5 365 188 34 366 189 35 367 190 36 368 191 11 369 192 37 370 189 35 371 188 34 372 191 11 373 189 35 374 193 11 375 190 36 376 194 38 377 195 11 378 188 34 379 190 36 380 196 11 381 195 11 382 190 36 383 197 11 384 196 11 385 190 36 386 198 11 387 197 11 388 190 36 389 199 11 390 198 11 391 190 36 392 200 11 393 199 11 394 190 36 395 201 11 396 200 11 397 190 36 398 193 11 399 201 11 400 190 36 401 202 39 402 194 38 403 192 37 404 203 11 405 204 40 406 192 37 407 205 41 408 192 37 409 204 40 410 206 11 411 203 11 412 192 37 413 207 11 414 206 11 415 192 37 416 191 11 417 207 11 418 192 37 419 208 11 420 202 39 421 192 37 422 209 11 423 208 11 424 192 37 425 205 41 426 209 11 427 192 37 428 202 39 429 193 11 430 194 38 431 210 42 432 211 43 433 212 43 434 213 2 435 214 2 436 215 2 437 210 42 438 216 44 439 211 43 440 217 5 441 218 5 442 219 5 443 220 5 444 218 5 445 217 5 446 221 11 447 222 11 448 206 11 449 223 45 450 224 46 451 225 46 452 207 11 453 221 11 454 206 11 455 226 45 456 224 46 457 223 45 458 227 5 459 228 5 460 229 5 461 230 5 462 228 5 463 227 5 464 231 47 465 232 48 466 233 48 467 234 47 468 232 48 469 231 47 470 235 5 471 236 5 472 237 5 473 238 5 474 236 5 475 235 5 476 239 49 477 240 50 478 241 51 479 242 49 480 240 50 481 239 49 482 243 8 483 244 8 484 245 8 485 246 8 486 244 8 487 243 8 488 247 52 489 248 52 490 249 53 491 250 53 492 248 52 493 247 52 494 197 11 495 251 11 496 196 11 497 252 8 498 253 8 499 254 8 500 255 8 501 253 8 502 252 8 503 256 54 504 257 54 505 258 55 506 259 55 507 257 54 508 256 54 509 260 8 510 261 8 511 262 8 512 263 8 513 261 8 514 260 8 515 264 56 516 265 57 517 266 57 518 267 58 519 265 57 520 264 56 521 268 4 522 269 4 523 270 4 524 271 4 525 269 4 526 268 4 527 272 11 528 273 11 529 200 11 530 274 59 531 275 60 532 276 60 533 201 11 534 272 11 535 200 11 536 277 59 537 275 60 538 274 59 539 278 4 540 279 4 541 280 4 542 281 4 543 279 4 544 278 4 545 282 61 546 283 62 547 284 62 548 285 61 549 283 62 550 282 61 551 286 4 552 287 4 553 288 4 554 289 4 555 287 4 556 286 4 557 290 63 558 291 64 559 292 65 560 293 63 561 291 64 562 290 63 563 294 2 564 295 2 565 296 2 566 297 2 567 295 2 568 294 2 569 298 66 570 299 66 571 300 67 572 301 67 573 299 66 574 298 66 575 205 41 576 302 11 577 209 11 578 303 2 579 304 2 580 305 2 581 306 2 582 304 2 583 303 2 584 307 68 585 308 68 586 309 69 587 310 69 588 308 68 589 307 68 590 213 2 591 311 2 592 214 2 593 312 70 594 313 71 595 314 72 596 312 70 597 315 73 598 313 71 599 312 70 600 316 74 601 315 73 602 317 75 603 318 76 604 316 74 605 312 70 606 317 75 607 316 74 608 312 70 609 319 77 610 317 75 611 320 78 612 321 79 613 319 77 614 322 80 615 319 77 616 312 70 617 323 81 618 320 78 619 319 77 620 322 80 621 323 81 622 319 77 623 320 78 624 324 82 625 321 79 626 325 83 627 326 84 628 324 82 629 320 78 630 325 83 631 324 82 632 325 83 633 327 85 634 326 84 635 325 83 636 328 86 637 327 85 638 329 87 639 330 88 640 328 86 641 331 89 642 329 87 643 328 86 644 332 90 645 331 89 646 328 86 647 333 91 648 332 90 649 328 86 650 334 92 651 333 91 652 328 86 653 335 93 654 334 92 655 328 86 656 325 83 657 335 93 658 328 86 659 333 91 660 336 94 661 332 90 662 337 95 663 338 85 664 334 92 665 339 96 666 337 95 667 334 92 668 335 93 669 339 96 670 334 92 671 337 95 672 340 97 673 338 85 674 341 98 675 342 99 676 340 97 677 341 98 678 340 97 679 337 95 680 341 98 681 343 79 682 342 99 683 341 98 684 312 70 685 343 79 686 341 98 687 322 80 688 312 70 689 344 100 690 345 101 691 346 102 692 347 4 693 348 4 694 349 4 695 350 100 696 345 101 697 344 100 698 351 2 699 352 2 700 353 2 701 351 2 702 354 2 703 352 2 704 355 103 705 356 104 706 357 104 707 358 105 708 356 104 709 355 103 710 359 5 711 360 5 712 361 5 713 362 5 714 360 5 715 359 5 716 363 106 717 364 107 718 365 108 719 366 106 720 364 107 721 363 106 722 367 8 723 368 8 724 369 8 725 370 8 726 368 8 727 367 8 728 371 109 729 372 110 730 373 110 731 374 111 732 372 110 733 371 109 734 375 4 735 348 4 736 347 4 737 376 11 738 377 11 739 378 11 740 379 11 741 376 11 742 378 11 743 380 11 744 381 11 745 377 11 746 376 11 747 380 11 748 377 11 749 382 11 750 383 11 751 381 11 752 380 11 753 382 11 754 381 11 755 384 0 756 385 0 757 386 0 758 387 0 759 384 0 760 386 0 761</p>
        </triangles>
      </mesh>
    </geometry>
  </library_geometries>
  <library_visual_scenes>
    <visual_scene id="Scene" name="Scene">
      <node id="clr_link_1_visual" name="clr_link_1_visual" type="NODE">
        <matrix sid="transform">1 0 0 0 0 1 0 0 0 0 1 0 0 0 0 1</matrix>
        <instance_geometry url="#clr_link_1_visual-mesh" name="clr_link_1_visual">
          <bind_material>
            <technique_common>
              <instance_material symbol="DEFAULT_MTL-material" target="#DEFAULT_MTL-material">
                <bind_vertex_input semantic="UVMap" input_semantic="TEXCOORD" input_set="0"/>
              </instance_material>
            </technique_common>
          </bind_material>
        </instance_geometry>
      </node>
    </visual_scene>
  </library_visual_scenes>
  <scene>
    <instance_visual_scene url="#Scene"/>
  </scene>
</COLLADA>