<?xml version="1.0" encoding="utf-8"?>
<COLLADA xmlns="http://www.collada.org/2005/11/COLLADASchema" version="1.4.1" xmlns:xsi="http://www.w3.org/2001/XMLSchema-instance">
  <asset>
    <contributor>
      <author>Blender User</author>
      <authoring_tool>Blender 3.5.1 commit date:2023-04-24, commit time:18:11, hash:e1ccd9d4a1d3</authoring_tool>
    </contributor>
    <created>2023-06-01T15:34:41</created>
    <modified>2023-06-01T15:34:41</modified>
    <unit name="meter" meter="1"/>
    <up_axis>Z_UP</up_axis>
  </asset>
  <library_effects>
    <effect id="DEFAULT_MTL_001-effect">
      <profile_COMMON>
        <technique sid="common">
          <lambert>
            <emission>
              <color sid="emission">0 0 0 1</color>
            </emission>
            <diffuse>
              <color sid="diffuse">0.8 0.8 0.8 1</color>
            </diffuse>
            <index_of_refraction>
              <float sid="ior">1.45</float>
            </index_of_refraction>
          </lambert>
        </technique>
      </profile_COMMON>
    </effect>
  </library_effects>
  <library_images/>
  <library_materials>
    <material id="DEFAULT_MTL_001-material" name="DEFAULT_MTL.001">
      <instance_effect url="#DEFAULT_MTL_001-effect"/>
    </material>
  </library_materials>
  <library_geometries>
    <geometry id="rail_des_live_carriage-mesh" name="rail_des_live_carriage">
      <mesh>
        <source id="rail_des_live_carriage-mesh-positions">
          <float_array id="rail_des_live_carriage-mesh-positions-array" count="144">0.1115 0.04449999 -0.01849997 0.1115 0.04449999 -0.01849997 0.1115 0.04449999 -0.01849997 -0.1115 0.04449999 -0.01849997 -0.1115 0.04449999 -0.01849997 -0.1115 0.04449999 -0.01849997 -0.1115 -0.04449999 -0.01849997 -0.1115 -0.04449999 -0.01849997 -0.1115 -0.04449999 -0.01849997 0.1115 -0.04449999 -0.01849997 0.1115 -0.04449999 -0.01849997 0.1115 -0.04449999 -0.01849997 0.1115 0.04449999 -0.001999974 0.1115 0.04449999 -0.001999974 0.1115 0.04449999 -0.001999974 -0.1115 0.04449999 -0.001999974 -0.1115 0.04449999 -0.001999974 -0.1115 0.04449999 -0.001999974 0.1115 0.1115 -0.001999974 0.1115 0.1115 -0.001999974 0.1115 0.1115 -0.001999974 -0.1115 0.1115 -0.001999974 -0.1115 0.1115 -0.001999974 -0.1115 0.1115 -0.001999974 0.1115 -0.04449999 -0.001999974 0.1115 -0.04449999 -0.001999974 0.1115 -0.04449999 -0.001999974 0.1115 -0.1115 -0.001999974 0.1115 -0.1115 -0.001999974 0.1115 -0.1115 -0.001999974 0.1115 -0.1115 0.01849997 0.1115 -0.1115 0.01849997 0.1115 -0.1115 0.01849997 0.1115 0.1115 0.01849997 0.1115 0.1115 0.01849997 0.1115 0.1115 0.01849997 -0.1115 -0.04449999 -0.001999974 -0.1115 -0.04449999 -0.001999974 -0.1115 -0.04449999 -0.001999974 -0.1115 -0.1115 -0.001999974 -0.1115 -0.1115 -0.001999974 -0.1115 -0.1115 -0.001999974 -0.1115 0.1115 0.01849997 -0.1115 0.1115 0.01849997 -0.1115 0.1115 0.01849997 -0.1115 -0.1115 0.01849997 -0.1115 -0.1115 0.01849997 -0.1115 -0.1115 0.01849997</float_array>
          <technique_common>
            <accessor source="#rail_des_live_carriage-mesh-positions-array" count="48" stride="3">
              <param name="X" type="float"/>
              <param name="Y" type="float"/>
              <param name="Z" type="float"/>
            </accessor>
          </technique_common>
        </source>
        <source id="rail_des_live_carriage-mesh-normals">
          <float_array id="rail_des_live_carriage-mesh-normals-array" count="18">0 0 -1 0 1 0 1 0 0 -1 0 0 0 -1 0 0 0 1</float_array>
          <technique_common>
            <accessor source="#rail_des_live_carriage-mesh-normals-array" count="6" stride="3">
              <param name="X" type="float"/>
              <param name="Y" type="float"/>
              <param name="Z" type="float"/>
            </accessor>
          </technique_common>
        </source>
        <source id="rail_des_live_carriage-mesh-map-0">
          <float_array id="rail_des_live_carriage-mesh-map-0-array" count="168">0 0 1 0 0.568746 0 0.568746 0.136239 0.568746 0 1 0 0.431254 0 0 0 0.568746 0 0.431254 0.136239 0.431254 0 0.568746 0 0.357814 0.269686 0.568746 0 0.568746 0.136239 0.357814 0.269686 0.431254 0.136239 0.568746 0 1 0.136239 1 0 0 0 1 0.136239 0.568746 0.136239 1 0 0 0.136239 0 0 0.431254 0 0.926559 0.269686 1 0.136239 0 0 0.926559 0.269686 0 0 0 0.136239 0 0.136239 0.431254 0 0.431254 0.136239 0.642186 0.140214 0.568746 0.136239 1 0.136239 0.357814 0.269686 0.568746 0.136239 0.642186 0.140214 0.926559 0.140214 0.642186 0.140214 1 0.136239 0.926559 0.269686 0.926559 0.140214 1 0.136239 0.642186 0.269686 0.642186 0.140214 0.926559 0.140214 0.642186 0.269686 0.357814 0.269686 0.642186 0.140214 0.926559 0.269686 0.642186 0.269686 0.926559 0.140214 0.357814 0.269686 0.357814 0.140214 0.431254 0.136239 0.07344096 0.140214 0.431254 0.136239 0.357814 0.140214 0.07344096 0.140214 0 0.136239 0.431254 0.136239 0.07344096 0.269686 0.357814 0.140214 0.357814 0.269686 0.07344096 0.269686 0.07344096 0.140214 0.357814 0.140214 0.926559 0.269686 0.357814 0.269686 0.642186 0.269686 0.07344096 0.269686 0.357814 0.269686 0.926559 0.269686 0.926559 0.269686 0 0.136239 0.07344096 0.140214 0.07344096 0.269686 0.926559 0.269686 0.07344096 0.140214</float_array>
          <technique_common>
            <accessor source="#rail_des_live_carriage-mesh-map-0-array" count="84" stride="2">
              <param name="S" type="float"/>
              <param name="T" type="float"/>
            </accessor>
          </technique_common>
        </source>
        <vertices id="rail_des_live_carriage-mesh-vertices">
          <input semantic="POSITION" source="#rail_des_live_carriage-mesh-positions"/>
        </vertices>
        <triangles material="DEFAULT_MTL_001-material" count="28">
          <input semantic="VERTEX" source="#rail_des_live_carriage-mesh-vertices" offset="0"/>
          <input semantic="NORMAL" source="#rail_des_live_carriage-mesh-normals" offset="1"/>
          <input semantic="TEXCOORD" source="#rail_des_live_carriage-mesh-map-0" offset="2" set="2"/>
          <p>6 0 0 3 0 1 0 0 2 12 1 3 1 1 4 4 1 5 9 0 6 6 0 7 0 0 8 24 2 9 10 2 10 2 2 11 30 2 12 2 2 13 14 2 14 30 2 15 24 2 16 2 2 17 17 3 18 5 3 19 8 3 20 15 1 21 12 1 22 4 1 23 36 4 24 7 4 25 11 4 26 42 3 27 17 3 28 8 3 29 42 3 30 8 3 31 38 3 32 36 4 33 11 4 34 25 4 35 18 0 36 13 0 37 16 0 38 30 2 39 14 2 40 19 2 41 21 0 42 18 0 43 16 0 44 42 3 45 22 3 46 17 3 47 34 1 48 20 1 49 23 1 50 33 2 51 30 2 52 19 2 53 43 1 54 34 1 55 23 1 56 30 2 57 27 2 58 24 2 59 39 0 60 26 0 61 28 0 62 39 0 63 37 0 64 26 0 65 47 4 66 29 4 67 32 4 68 47 4 69 41 4 70 29 4 71 44 5 72 31 5 73 35 5 74 46 5 75 31 5 76 44 5 77 42 3 78 38 3 79 40 3 80 45 3 81 42 3 82 40 3 83</p>
        </triangles>
      </mesh>
    </geometry>
  </library_geometries>
  <library_visual_scenes>
    <visual_scene id="Scene" name="Scene">
      <node id="rail_des_live_carriage" name="rail_des_live_carriage" type="NODE">
        <matrix sid="transform">1 0 0 0 0 1 0 0 0 0 1 0 0 0 0 1</matrix>
        <instance_geometry url="#rail_des_live_carriage-mesh" name="rail_des_live_carriage">
          <bind_material>
            <technique_common>
              <instance_material symbol="DEFAULT_MTL_001-material" target="#DEFAULT_MTL_001-material">
                <bind_vertex_input semantic="UVMap" input_semantic="TEXCOORD" input_set="0"/>
              </instance_material>
            </technique_common>
          </bind_material>
        </instance_geometry>
      </node>
    </visual_scene>
  </library_visual_scenes>
  <scene>
    <instance_visual_scene url="#Scene"/>
  </scene>
</COLLADA>