<?xml version="1.0" encoding="utf-8"?>
<COLLADA xmlns="http://www.collada.org/2005/11/COLLADASchema" version="1.4.1" xmlns:xsi="http://www.w3.org/2001/XMLSchema-instance">
  <asset>
    <contributor>
      <author>Blender User</author>
      <authoring_tool>Blender 3.5.1 commit date:2023-04-24, commit time:18:11, hash:e1ccd9d4a1d3</authoring_tool>
    </contributor>
    <created>2023-06-01T15:37:04</created>
    <modified>2023-06-01T15:37:04</modified>
    <unit name="meter" meter="1"/>
    <up_axis>Z_UP</up_axis>
  </asset>
  <library_effects>
    <effect id="DEFAULT_MTL_002-effect">
      <profile_COMMON>
        <technique sid="common">
          <lambert>
            <emission>
              <color sid="emission">0 0 0 1</color>
            </emission>
            <diffuse>
              <color sid="diffuse">0.8 0.8 0.8 1</color>
            </diffuse>
            <index_of_refraction>
              <float sid="ior">1.45</float>
            </index_of_refraction>
          </lambert>
        </technique>
      </profile_COMMON>
    </effect>
  </library_effects>
  <library_images/>
  <library_materials>
    <material id="DEFAULT_MTL_002-material" name="DEFAULT_MTL.002">
      <instance_effect url="#DEFAULT_MTL_002-effect"/>
    </material>
  </library_materials>
  <library_geometries>
    <geometry id="rail_des_gearbox-mesh" name="rail_des_gearbox">
      <mesh>
        <source id="rail_des_gearbox-mesh-positions">
          <float_array id="rail_des_gearbox-mesh-positions-array" count="384">-0.04554998 -0.03999996 -0.04954999 0.04554998 0.03999996 -0.04954999 0.04554998 0 -0.04954999 0.04554998 0.02828598 -0.03783196 0.04554998 0 -0.04954999 0.04554998 0.03999996 -0.04954999 0.04554998 -0.03999996 -0.04954999 0.04554998 -0.02828198 -0.03783595 0.04554998 -0.03999996 -0.04954999 0.04554998 0 -0.04954999 0.06304997 1.2e-5 -0.04954999 0.04554998 0 -0.04954999 0.04554998 0.02828598 -0.03783196 0.06304997 -0.02827095 -0.03784698 0.04554998 -0.02828198 -0.03783595 -0.04554998 0.03999996 -0.04954999 -0.04554998 0.03999996 0.04954999 0.04554998 0.03999996 -0.04954999 -0.04554998 0.03999996 -0.04954999 0.04554998 0.03999996 -0.009549975 0.04554998 0.03999996 -0.009549975 -0.04554998 -0.03999996 0.04954999 -0.04554998 0.03999996 -0.04954999 -0.04554998 -0.03999996 -0.04954999 -0.04554998 0.03999996 0.04954999 0.04554998 -0.03999996 -0.009549975 -0.04554998 -0.03999996 -0.04954999 0.04554998 -0.03999996 -0.04954999 0.04554998 -0.03999996 0.04954999 0.03744995 -0.03999996 0.04954999 -0.04554998 -0.03999996 0.04954999 0.04554998 -0.03999996 -0.009549975 0.06304997 0.02828395 -0.03783398 0.04554998 0.03999996 -0.009549975 0.06304997 0.03999996 -0.009549975 0.04554998 0.02828395 0.01873397 0.06304997 0.03999996 -0.009549975 0.04554998 0.03999996 -0.009549975 0.04554998 0.03999996 0.04954999 0.04554998 0.02828395 0.01873397 0.04554998 0.03999996 -0.009549975 0.03744995 0.03999996 0.04954999 0.04554998 0.03999996 0.04954999 0.06304997 0.04124999 -0.05079996 0.06304997 0.02828395 -0.03783398 0.06304997 0.03999996 -0.009549975 0.06304997 0.04124999 0.03169995 0.06304997 0.03694295 0.005786955 0.06304997 0.03694295 0.005786955 0.06304997 -0.03999996 -0.009549975 0.04554998 -0.03999996 -0.009549975 0.06304997 -0.03694295 -0.02488696 0.06304997 -0.02828395 0.01873397 0.04554998 -0.03999996 -0.009549975 0.06304997 -0.03999996 -0.009549975 0.04554998 -0.03694295 0.005786955 0.04554998 -0.03999996 0.04954999 0.04554998 -0.03999996 -0.009549975 0.04554998 -0.03694295 0.005786955 0.06304997 -0.04124999 -0.05079996 0.06304997 -0.03999996 -0.009549975 0.06304997 -0.03694295 -0.02488696 0.06304997 -0.04124999 0.03169995 0.06304997 -0.02828395 0.01873397 0.06304997 -0.02827095 -0.03784698 0.06304997 1.2e-5 -0.04954999 0.07454997 -0.04124999 -0.05079996 0.06304997 -0.04124999 -0.05079996 0.06304997 0.04124999 -0.05079996 0.07454997 -0.04124999 0.03169995 0.06304997 -0.04124999 0.03169995 0.06304997 -0.04124999 -0.05079996 0.07454997 -0.04124999 -0.05079996 0.07454997 0.04124999 -0.05079996 0.06304997 0.04124999 -0.05079996 0.06304997 0.04124999 0.03169995 0.07454997 0.04124999 -0.05079996 0.06304997 -1.2e-5 0.03044998 0.07454997 0.04124999 0.03169995 0.06304997 0.04124999 0.03169995 0.06304997 -0.04124999 0.03169995 0.06304997 0.02827095 0.01874697 0.07454997 0.04124999 0.03169995 0.07454997 -0.04124999 0.03169995 0.04554998 -0.02827095 0.01874697 0.06304997 -1.2e-5 0.03044998 0.04554998 1.2e-5 0.03044998 0.06304997 0.02827095 0.01874697 0.07454997 0.04124999 0.03169995 0.07454997 -0.04124999 0.03169995 0.07454997 -0.04124999 -0.05079996 0.07454997 0.04124999 -0.05079996 0.04554998 -0.02827095 0.01874697 0.04554998 1.2e-5 0.03044998 0.03744995 -0.03999996 0.04954999 0.04554998 -0.03999996 0.04954999 0.04554998 0.03999996 0.04954999 0.03744995 0.03999996 0.04954999 -0.04854995 -0.04299998 0.04954999 -0.04554998 -0.03999996 0.04954999 0.03744995 -0.03999996 0.04954999 -0.04554998 0.03999996 0.04954999 0.03744995 -0.04299998 0.08654999 0.03744995 -0.03999996 0.04954999 0.03744995 0.03999996 0.04954999 0.03744995 -0.04299998 0.04954999 0.03744995 -0.04299998 0.04954999 0.03744995 0.04299998 0.04954999 0.03744995 0.03999996 0.04954999 -0.04854995 0.04299998 0.04954999 0.03744995 0.04299998 0.04954999 0.03744995 0.04299998 0.08654999 0.03744995 0.04299998 0.04954999 -0.04854995 0.04299998 0.04954999 0.03744995 0.04299998 0.08654999 -0.04854995 0.04299998 0.08654999 -0.04854995 0.04299998 0.04954999 -0.04854995 -0.04299998 0.04954999 -0.04854995 0.04299998 0.08654999 -0.04854995 -0.04299998 0.08654999 -0.04854995 -0.04299998 0.04954999 0.03744995 -0.04299998 0.04954999 -0.04854995 -0.04299998 0.08654999 0.03744995 -0.04299998 0.08654999 -0.04854995 0.04299998 0.08654999 0.03744995 -0.04299998 0.08654999 0.03744995 0.04299998 0.08654999 -0.04854995 -0.04299998 0.08654999</float_array>
          <technique_common>
            <accessor source="#rail_des_gearbox-mesh-positions-array" count="128" stride="3">
              <param name="X" type="float"/>
              <param name="Y" type="float"/>
              <param name="Z" type="float"/>
            </accessor>
          </technique_common>
        </source>
        <source id="rail_des_gearbox-mesh-normals">
          <float_array id="rail_des_gearbox-mesh-normals-array" count="189">0 0 -1 1 2.48479e-7 0 1 0 0 1 2.48399e-7 0 1 -1.24171e-7 0 1 -1.24211e-7 0 3.58453e-5 3.93651e-4 -1 -1.0775e-4 -1.62586e-5 -1 -3.59247e-5 0.7071868 -0.7070267 1.69104e-5 -0.7067627 -0.7074507 -4.56348e-6 -0.7070486 -0.707165 0 1 0 0 1 0 1 4.96907e-7 0 0 1 0 -1 0 0 0 -1 0 0 -1 0 0 -1 -3.0558e-7 0 -1 -4.188e-7 1 -2.48369e-7 0 -1.10573e-5 0.7071403 -0.7070732 -1.78457e-5 1 8.55327e-6 -1.82818e-5 1 5.0664e-7 -2.26162e-5 0.7070672 0.7071464 1.49533e-5 1 2.68817e-5 1.82818e-5 1 -5.0664e-7 1 0 0 1 -2.04279e-7 0 1 -3.36258e-7 0 0 1 0 -1 -4.31609e-7 0 -1 -4.48942e-7 0 -1 -2.96846e-7 0 -1 -4.65485e-7 0 -1 -2.60984e-6 0 -2.36481e-5 0.9235686 0.3834335 7.07685e-6 -1 -1.54972e-5 1.82839e-5 -1 1.35005e-5 4.21703e-6 -0.9235668 -0.3834376 2.26386e-5 -0.7070672 0.7071464 -1.48788e-5 -1 2.69413e-5 -1.82818e-5 -1 -5.0664e-7 2.37674e-5 -0.9235685 0.3834335 1 0 0 1 1.28872e-6 0 1 1.04828e-6 0 -1 3.69953e-7 0 -1 2.48083e-7 0 -1 1.97952e-6 0 -1 4.31609e-7 0 -1 4.48942e-7 0 -1 1.96397e-7 0 -1 0 0 0 0 1 -1 -2.25977e-7 0 -5.81283e-5 -0.7067466 0.7074668 1.65348e-4 -4.21462e-4 1 -1.65348e-4 4.21498e-4 1 5.81284e-5 0.7067466 0.7074668 0 0 -1 1.22184e-6 0 -1 1.24086e-6 0 -1</float_array>
          <technique_common>
            <accessor source="#rail_des_gearbox-mesh-normals-array" count="63" stride="3">
              <param name="X" type="float"/>
              <param name="Y" type="float"/>
              <param name="Z" type="float"/>
            </accessor>
          </technique_common>
        </source>
        <source id="rail_des_gearbox-mesh-map-0">
          <float_array id="rail_des_gearbox-mesh-map-0-array" count="516">0 0.07830798 0.648827 0.07830798 0.5 0 0.614771 0.117298 0.5 0 0.648827 0.07830798 0.351173 0.07830798 0 0.07830798 0.5 0 0.385244 0.117256 0.351173 0.07830798 0.5 0 0.500038 0.08887195 0.5 0 0.614771 0.117298 0.412945 0.179732 0.385244 0.117256 0.5 0 0.500038 0.08887195 0.412945 0.179732 0.5 0 0 0.07830798 1 0.07830798 0.648827 0.07830798 1 0.833128 0.648827 0.07830798 1 0.07830798 0.648827 0.36966 0.614771 0.117298 0.648827 0.07830798 1 0.833128 0.648827 0.36966 0.648827 0.07830798 0 0.833128 1 0.07830798 0 0.07830798 1 0.833128 1 0.07830798 0 0.833128 0.351173 0.36966 0 0.07830798 0.351173 0.07830798 0.351173 0.833128 0 0.07830798 0.351173 0.36966 0.330996 0.860623 0 0.07830798 0.351173 0.833128 0.330996 0.860623 0 0.833128 0 0.07830798 0.351173 0.36966 0.351173 0.07830798 0.385244 0.117256 0.58709 0.179828 0.614771 0.117298 0.648827 0.36966 0.58709 0.179828 0.500038 0.08887195 0.614771 0.117298 0.58709 0.179828 0.648827 0.36966 0.616759 0.385656 0.614763 0.640857 0.616759 0.385656 0.648827 0.36966 0.648827 0.833128 0.614763 0.640857 0.648827 0.36966 0.669004 0.860623 0.648827 0.833128 0.648827 0.36966 0.669004 0.860623 0.648827 0.36966 1 0.833128 0.619652 0.128995 0.58709 0.179828 0.616759 0.385656 0.619652 0.675058 0.619652 0.128995 0.616759 0.385656 0.609462 0.499241 0.619652 0.675058 0.616759 0.385656 0.614763 0.640857 0.609462 0.499241 0.616759 0.385656 0.383241 0.385656 0.351173 0.36966 0.385244 0.117256 0.390538 0.274937 0.383241 0.385656 0.385244 0.117256 0.412945 0.179732 0.390538 0.274937 0.385244 0.117256 0.41291 0.601529 0.351173 0.36966 0.383241 0.385656 0.359264 0.509885 0.351173 0.36966 0.41291 0.601529 0.351173 0.833128 0.351173 0.36966 0.359264 0.509885 0.380348 0.128995 0.383241 0.385656 0.390538 0.274937 0.380348 0.675058 0.383241 0.385656 0.380348 0.128995 0.41291 0.601529 0.383241 0.385656 0.380348 0.675058 0.380348 0.128995 0.390538 0.274937 0.412945 0.179732 0.380348 0.128995 0.412945 0.179732 0.500038 0.08887195 0.619652 0.128995 0.500038 0.08887195 0.58709 0.179828 0.619652 0.128995 0.380348 0.128995 0.500038 0.08887195 0.395623 0.159604 0.380348 0.128995 0.619652 0.128995 0.395623 0.651894 0.380348 0.675058 0.380348 0.128995 0.395623 0.159604 0.395623 0.651894 0.380348 0.128995 0.604377 0.159604 0.619652 0.128995 0.619652 0.675058 0.604377 0.159604 0.395623 0.159604 0.619652 0.128995 0.499962 0.703512 0.380348 0.675058 0.619652 0.675058 0.604377 0.651894 0.619652 0.675058 0.380348 0.675058 0.587055 0.601634 0.499962 0.703512 0.619652 0.675058 0.609462 0.499241 0.587055 0.601634 0.619652 0.675058 0.604377 0.159604 0.619652 0.675058 0.604377 0.651894 0.499962 0.703512 0.41291 0.601529 0.380348 0.675058 0.604377 0.651894 0.380348 0.675058 0.395623 0.651894 0.385279 0.640995 0.41291 0.601529 0.499962 0.703512 0.385279 0.640995 0.359264 0.509885 0.41291 0.601529 0.500053 0.780262 0.499962 0.703512 0.587055 0.601634 0.500053 0.780262 0.385279 0.640995 0.499962 0.703512 0.614763 0.640857 0.587055 0.601634 0.609462 0.499241 0.614763 0.640857 0.500053 0.780262 0.587055 0.601634 0.604377 0.651894 0.395623 0.651894 0.395623 0.159604 0.604377 0.159604 0.604377 0.651894 0.395623 0.159604 0.351173 0.833128 0.359264 0.509885 0.385279 0.640995 0.351173 0.833128 0.385279 0.640995 0.500053 0.780262 0.351173 0.833128 0.500053 0.780262 0.614763 0.640857 0.648827 0.833128 0.351173 0.833128 0.614763 0.640857 0.330996 0.860623 0.351173 0.833128 0.648827 0.833128 0.669004 0.860623 0.330996 0.860623 0.648827 0.833128 8.75e-4 0.815041 0 0.833128 0.330996 0.860623 8.75e-4 0.815041 1 0.833128 0 0.833128 0.323568 1 0.330996 0.860623 0.669004 0.860623 0.323568 0.849733 8.75e-4 0.815041 0.330996 0.860623 0.323568 1 0.323568 0.849733 0.330996 0.860623 0.676432 0.849733 0.669004 0.860623 1 0.833128 0.999125 0.815041 0.676432 0.849733 1 0.833128 8.75e-4 0.815041 0.999125 0.815041 1 0.833128 0.323568 1 0.669004 0.860623 0.676432 0.849733 0.676432 1 0.676432 0.849733 0.999125 0.815041 0.676432 1 0.323568 1 0.676432 0.849733 0.999125 0.966672 0.999125 0.815041 8.75e-4 0.815041 0.999125 0.966672 0.676432 1 0.999125 0.815041 8.75e-4 0.966672 8.75e-4 0.815041 0.323568 0.849733 0.999125 0.966672 8.75e-4 0.815041 8.75e-4 0.966672 8.75e-4 0.966672 0.323568 0.849733 0.323568 1 0.999125 0.966672 0.323568 1 0.676432 1 0.999125 0.966672 8.75e-4 0.966672 0.323568 1</float_array>
          <technique_common>
            <accessor source="#rail_des_gearbox-mesh-map-0-array" count="258" stride="2">
              <param name="S" type="float"/>
              <param name="T" type="float"/>
            </accessor>
          </technique_common>
        </source>
        <vertices id="rail_des_gearbox-mesh-vertices">
          <input semantic="POSITION" source="#rail_des_gearbox-mesh-positions"/>
        </vertices>
        <triangles material="DEFAULT_MTL_002-material" count="86">
          <input semantic="VERTEX" source="#rail_des_gearbox-mesh-vertices" offset="0"/>
          <input semantic="NORMAL" source="#rail_des_gearbox-mesh-normals" offset="1"/>
          <input semantic="TEXCOORD" source="#rail_des_gearbox-mesh-map-0" offset="2" set="2"/>
          <p>0 0 0 1 0 1 2 0 2 3 1 3 4 2 4 5 3 5 6 0 6 0 0 7 2 0 8 7 4 9 8 5 10 9 2 11 10 6 12 11 7 13 12 8 14 13 9 15 14 10 16 11 7 17 10 6 18 13 9 19 11 7 20 0 0 21 15 0 22 1 0 23 16 11 24 17 12 25 18 12 26 19 13 27 3 1 28 5 3 29 16 11 30 20 14 31 17 12 32 21 15 33 22 15 34 23 15 35 24 15 36 22 15 37 21 15 38 25 16 39 26 17 40 27 16 41 28 18 42 26 17 43 25 16 44 29 19 45 26 17 46 28 18 47 29 19 48 30 16 49 26 17 50 31 20 51 8 5 52 7 4 53 32 21 54 12 8 55 33 22 56 32 21 57 10 6 58 12 8 59 32 21 60 33 22 61 34 23 62 35 24 63 36 25 64 37 26 65 38 27 66 39 28 67 40 29 68 41 30 69 42 12 70 20 14 71 41 30 72 20 14 73 16 11 74 43 31 75 44 32 76 45 33 77 46 34 78 43 31 79 45 33 80 47 35 81 46 34 82 45 33 83 35 24 84 48 36 85 36 25 86 49 37 87 50 38 88 14 10 89 51 39 90 49 37 91 14 10 92 13 9 93 51 39 94 14 10 95 52 40 96 53 41 97 54 42 98 55 43 99 53 41 100 52 40 101 56 44 102 57 45 103 58 46 104 59 47 105 60 48 106 61 49 107 62 50 108 60 48 109 59 47 110 63 51 111 60 48 112 62 50 113 59 47 114 61 49 115 64 52 116 59 47 117 64 52 118 65 15 119 43 31 120 65 15 121 44 32 122 43 31 123 59 47 124 65 15 125 66 0 126 67 0 127 68 0 128 69 16 129 70 16 130 71 16 131 72 16 132 69 16 133 71 16 134 73 12 135 74 12 136 75 12 137 76 0 138 66 0 139 68 0 140 77 53 141 62 50 142 46 34 143 78 54 144 79 54 145 80 54 146 81 55 147 77 53 148 46 34 149 47 35 150 81 55 151 46 34 152 73 12 153 75 12 154 82 12 155 77 53 156 63 51 157 62 50 158 78 54 159 80 54 160 83 54 161 84 56 162 52 40 163 85 57 164 84 56 165 55 43 166 52 40 167 86 58 168 85 57 169 87 59 170 86 58 171 84 56 172 85 57 173 35 24 174 87 59 175 48 36 176 35 24 177 86 58 178 87 59 179 88 2 180 89 2 181 90 2 182 91 2 183 88 2 184 90 2 185 56 44 186 58 46 187 92 2 188 56 44 189 92 2 190 93 2 191 56 44 192 93 2 193 39 28 194 38 27 195 56 44 196 39 28 197 94 54 198 95 54 199 96 54 200 97 54 201 94 54 202 96 54 203 98 60 204 99 0 205 100 0 206 98 60 207 101 61 208 99 0 209 102 2 210 103 2 211 104 2 212 105 0 213 98 60 214 100 0 215 102 2 216 106 2 217 103 2 218 107 0 219 108 0 220 101 61 221 109 62 222 107 0 223 101 61 224 98 60 225 109 62 226 101 61 227 102 2 228 104 2 229 110 2 230 111 12 231 112 12 232 113 12 233 114 2 234 102 2 235 110 2 236 115 15 237 116 15 238 117 15 239 118 12 240 111 12 241 113 12 242 119 16 243 120 16 244 121 16 245 115 15 246 117 15 247 122 15 248 119 16 249 121 16 250 123 16 251 124 54 252 125 54 253 126 54 254 124 54 255 127 54 256 125 54 257</p>
        </triangles>
      </mesh>
    </geometry>
  </library_geometries>
  <library_visual_scenes>
    <visual_scene id="Scene" name="Scene">
      <node id="rail_des_gearbox" name="rail_des_gearbox" type="NODE">
        <matrix sid="transform">1 0 0 0 0 1 0 0 0 0 1 0 0 0 0 1</matrix>
        <instance_geometry url="#rail_des_gearbox-mesh" name="rail_des_gearbox">
          <bind_material>
            <technique_common>
              <instance_material symbol="DEFAULT_MTL_002-material" target="#DEFAULT_MTL_002-material">
                <bind_vertex_input semantic="UVMap" input_semantic="TEXCOORD" input_set="0"/>
              </instance_material>
            </technique_common>
          </bind_material>
        </instance_geometry>
      </node>
    </visual_scene>
  </library_visual_scenes>
  <scene>
    <instance_visual_scene url="#Scene"/>
  </scene>
</COLLADA>
